<svg width="600" height="600" xmlns="http://www.w3.org/2000/svg">
 <g>
  <title>Layer 1</title>
  <path fill="#fff" stroke="#000" d="m485.87614,295.47906l-78.4309,26.20962l0,-52.39133l78.4309,26.18171zm-56.94747,-129.1082l-35.73145,70.64595l-39.43088,-37.06749l75.16233,-33.57846zm-137.42865,-53.46596l27.88688,73.68839l-55.7886,0l27.90173,-73.68839zm-137.44351,53.46596l75.19205,33.57846l-39.44574,37.06749l-35.74631,-70.64595zm-56.93261,129.1082l78.44577,-26.18171l0,52.39133l-78.44577,-26.20962zm56.93261,129.1082l35.74631,-70.61804l39.44574,37.05354l-75.19205,33.5645l0,0zm137.44351,53.50782l-27.90173,-73.70235l55.7886,0l-27.88688,73.70235zm137.42865,-53.50782l-75.17719,-33.55055l39.43088,-37.05354l35.74631,70.60408zm-234.60928,-129.1082l0,0c0,-50.40956 43.5166,-91.28708 97.19549,-91.28708c53.66403,0 97.19549,40.87752 97.19549,91.28708c0,50.42352 -43.53146,91.30103 -97.19549,91.30103c-53.69375,0 -97.19549,-40.87752 -97.19549,-91.30103l0,0z" id="svg_2"/>
 </g>

</svg>